# xmcd
#
# Track frame offsets:
#	150
#	14778
#	26224
#	36183
#	46107
#	56530
#	67367
#	80126
#	93092
#	106011
#	119026
#
# Disc length: 1717 seconds
#
# Revision: 2
# Processed by: cddbd v1.5.2PL0 Copyright (c) Steve Scherf et al.
# Submitted via: audiograbber 1.83.01
#
DISCID=9906b30b
DTITLE=Barbara Mandrell - Treat Him Right
DYEAR=1971
DGENRE=Country
TTITLE0=He'll Never Take the Place of You
TTITLE1=Playing Around With Love
TTITLE2=I've Been Loving You Too Long (To Stop Now)
TTITLE3=Letter
TTITLE4=Treat Him Right
TTITLE5=Break My Mind
TTITLE6=Watching My World Walk Away
TTITLE7=Baby Come Home
TTITLE8=I Almost Lost My Mind
TTITLE9=Games People Play
TTITLE10=Do Right Woman, Do Right Man
EXTD=
EXTT0=
EXTT1=
EXTT2=
EXTT3=
EXTT4=
EXTT5=
EXTT6=
EXTT7=
EXTT8=
EXTT9=
EXTT10=
PLAYORDER=
